<?xml version="1.0" encoding="UTF-8"?><svg xmlns="http://www.w3.org/2000/svg" viewBox="0 0 439.37 439.37"><defs><style>.cls-1,.cls-2,.cls-3,.cls-4,.cls-5,.cls-6,.cls-7,.cls-8,.cls-9,.cls-10{fill:none;stroke-miterlimit:2;}.cls-1,.cls-3,.cls-7,.cls-10{stroke:#fff;}.cls-1,.cls-5,.cls-10{stroke-width:16px;}.cls-11{fill:#1d1d1b;}.cls-12{fill:#fff;}.cls-2{stroke:#fec70e;}.cls-2,.cls-4,.cls-6,.cls-8,.cls-9{stroke-width:12px;}.cls-3{stroke-width:4px;}.cls-4{stroke:#dc251f;}.cls-4,.cls-9,.cls-10{stroke-linecap:square;}.cls-5{stroke:#017e36;}.cls-6{stroke:#e42513;}.cls-7{stroke-width:20px;}.cls-8{stroke:#0177ae;}.cls-9{stroke:#1d1d1b;}</style></defs><g id="Square_Border_Line"><path class="cls-1" d="M28.35,255.12c0-36.97,0-102.95,0-129.65,0-7.5,2.97-14.68,8.26-19.99L105.08,36.69c5.32-5.34,12.55-8.35,20.09-8.35h189.08c7.52,0,14.73,2.99,20.04,8.3l68.43,68.43c5.32,5.32,8.3,12.52,8.3,20.04,0,11.15,0,28.6,0,44.96"/><path class="cls-8" d="M28.35,255.12c0-36.97,0-102.95,0-129.65,0-7.5,2.97-14.68,8.26-19.99L105.08,36.69c5.32-5.34,12.55-8.35,20.09-8.35h189.08c7.52,0,14.73,2.99,20.04,8.3l68.43,68.43c5.32,5.32,8.3,12.52,8.3,20.04,0,11.15,0,28.6,0,44.96"/><path class="cls-3" d="M28.35,255.12c0-36.97,0-102.95,0-129.65,0-7.5,2.97-14.68,8.26-19.99L105.08,36.69c5.32-5.34,12.55-8.35,20.09-8.35h189.08c7.52,0,14.73,2.99,20.04,8.3l68.43,68.43c5.32,5.32,8.3,12.52,8.3,20.04,0,11.15,0,28.6,0,44.96"/><path class="cls-1" d="M411.02,269.29c0,16.73,0,33.95,0,44.96,0,7.52-2.99,14.72-8.3,20.04l-68.43,68.43c-5.32,5.32-12.53,8.3-20.04,8.3H125.13c-7.52,0-14.73-2.99-20.04-8.3l-68.43-68.43c-5.32-5.32-8.3-12.52-8.3-20.04,0-10.75,0-27.59,0-44.95"/><path class="cls-6" d="M411.02,269.29c0,16.73,0,33.95,0,44.96,0,7.52-2.99,14.72-8.3,20.04l-68.43,68.43c-5.32,5.32-12.53,8.3-20.04,8.3H125.13c-7.52,0-14.73-2.99-20.04-8.3l-68.43-68.43c-5.32-5.32-8.3-12.52-8.3-20.04,0-10.75,0-27.59,0-44.95"/><path class="cls-3" d="M411.02,269.29c0,16.73,0,33.95,0,44.96,0,7.52-2.99,14.72-8.3,20.04l-68.43,68.43c-5.32,5.32-12.53,8.3-20.04,8.3H125.13c-7.52,0-14.73-2.99-20.04-8.3l-68.43-68.43c-5.32-5.32-8.3-12.52-8.3-20.04,0-10.75,0-27.59,0-44.95"/></g><g id="_.net_wording"><path class="cls-10" d="M70.87,269.29v-113.39h56.69c15.66,0,28.35,12.69,28.35,28.35v198.43M141.73,325.98h14.17"/><path class="cls-4" d="M70.87,269.29v-113.39h56.69c15.66,0,28.35,12.69,28.35,28.35v198.43M141.73,325.98h14.17"/><path class="cls-10" d="M411.02,269.29h-56.69c-15.66,0-28.35-12.69-28.35-28.35V99.21M325.98,28.35v113.39c0,15.66,12.69,28.35,28.35,28.35h56.69M319.7,85.04h-7.88"/><path class="cls-9" d="M411.02,269.29h-56.69c-15.66,0-28.35-12.69-28.35-28.35V99.21M325.98,28.35v113.39c0,15.66,12.69,28.35,28.35,28.35h56.69M319.7,85.04h-7.88"/><path class="cls-7" d="M184.25,212.6h70.87c15.66,0,28.35-12.69,28.35-28.35h0c0-15.66-12.69-28.35-28.35-28.35h-42.52c-15.66,0-28.35,12.69-28.35,28.35v56.69c0,15.66,12.69,28.35,28.35,28.35h56.69"/><path class="cls-5" d="M184.25,212.6h70.87c15.66,0,28.35-12.69,28.35-28.35h0c0-15.66-12.69-28.35-28.35-28.35h-42.52c-15.66,0-28.35,12.69-28.35,28.35v56.69c0,15.66,12.69,28.35,28.35,28.35h56.69"/><line class="cls-1" x1="325.98" y1="212.6" x2="127.56" y2="411.02"/><line class="cls-2" x1="325.98" y1="212.6" x2="127.56" y2="411.02"/><path class="cls-12" d="M411.02,187.25c-9.47,0-17.17-7.7-17.17-17.17s7.7-17.17,17.17-17.17,17.17,7.7,17.17,17.17-7.7,17.17-17.17,17.17Z"/><path class="cls-11" d="M411.02,155.91c7.83,0,14.17,6.35,14.17,14.17s-6.35,14.17-14.17,14.17-14.17-6.35-14.17-14.17,6.35-14.17,14.17-14.17M411.02,149.91c-11.12,0-20.17,9.05-20.17,20.17s9.05,20.17,20.17,20.17,20.17-9.05,20.17-20.17-9.05-20.17-20.17-20.17h0Z"/><path class="cls-12" d="M411.02,286.46c-9.47,0-17.17-7.7-17.17-17.17s7.7-17.17,17.17-17.17,17.17,7.7,17.17,17.17-7.7,17.17-17.17,17.17Z"/><path class="cls-11" d="M411.02,255.12c7.83,0,14.17,6.35,14.17,14.17s-6.35,14.17-14.17,14.17-14.17-6.35-14.17-14.17,6.35-14.17,14.17-14.17M411.02,249.12c-11.12,0-20.17,9.05-20.17,20.17s9.05,20.17,20.17,20.17,20.17-9.05,20.17-20.17-9.05-20.17-20.17-20.17h0Z"/><path class="cls-12" d="M325.98,229.77c-9.47,0-17.17-7.7-17.17-17.17s7.7-17.17,17.17-17.17,17.17,7.7,17.17,17.17-7.7,17.17-17.17,17.17Z"/><path class="cls-11" d="M325.98,198.43c7.83,0,14.17,6.35,14.17,14.17s-6.35,14.17-14.17,14.17-14.17-6.35-14.17-14.17,6.35-14.17,14.17-14.17M325.98,192.43c-11.12,0-20.17,9.05-20.17,20.17s9.05,20.17,20.17,20.17,20.17-9.05,20.17-20.17-9.05-20.17-20.17-20.17h0Z"/><path class="cls-12" d="M269.29,286.46c-9.47,0-17.17-7.7-17.17-17.17s7.7-17.17,17.17-17.17,17.17,7.7,17.17,17.17-7.7,17.17-17.17,17.17Z"/><path class="cls-11" d="M269.29,255.12c7.83,0,14.17,6.35,14.17,14.17s-6.35,14.17-14.17,14.17-14.17-6.35-14.17-14.17,6.35-14.17,14.17-14.17M269.29,249.12c-11.12,0-20.17,9.05-20.17,20.17s9.05,20.17,20.17,20.17,20.17-9.05,20.17-20.17-9.05-20.17-20.17-20.17h0Z"/><path class="cls-12" d="M325.98,45.52c-9.47,0-17.17-7.7-17.17-17.17s7.7-17.17,17.17-17.17,17.17,7.7,17.17,17.17-7.7,17.17-17.17,17.17Z"/><path class="cls-11" d="M325.98,14.17c7.83,0,14.17,6.35,14.17,14.17s-6.35,14.17-14.17,14.17-14.17-6.35-14.17-14.17,6.35-14.17,14.17-14.17M325.98,8.17c-11.12,0-20.17,9.05-20.17,20.17s9.05,20.17,20.17,20.17,20.17-9.05,20.17-20.17-9.05-20.17-20.17-20.17h0Z"/><path class="cls-12" d="M127.56,428.2c-9.47,0-17.17-7.7-17.17-17.17s7.7-17.17,17.17-17.17c1.59,0,3.15.21,4.66.64l7.16-7.16c-.43-1.51-.64-3.07-.64-4.66,0-9.47,7.7-17.17,17.17-17.17s17.17,7.7,17.17,17.17-7.7,17.17-17.17,17.17c-1.59,0-3.15-.21-4.66-.64l-7.16,7.16c.43,1.51.64,3.07.64,4.66,0,9.47-7.7,17.17-17.17,17.17Z"/><path class="cls-11" d="M155.91,368.5c7.83,0,14.17,6.35,14.17,14.17s-6.35,14.17-14.17,14.17c-1.93,0-3.77-.39-5.45-1.09l-9.81,9.81c.7,1.68,1.09,3.52,1.09,5.45,0,7.83-6.35,14.17-14.17,14.17s-14.17-6.35-14.17-14.17,6.35-14.17,14.17-14.17c1.93,0,3.77.39,5.45,1.09l9.81-9.81c-.7-1.68-1.09-3.52-1.09-5.45,0-7.83,6.35-14.17,14.17-14.17M155.91,362.5c-11.12,0-20.17,9.05-20.17,20.17,0,1.26.11,2.5.34,3.71l-4.8,4.8c-1.22-.23-2.46-.34-3.71-.34-11.12,0-20.17,9.05-20.17,20.17s9.05,20.17,20.17,20.17,20.17-9.05,20.17-20.17c0-1.26-.11-2.5-.34-3.71l4.8-4.8c1.22.23,2.46.34,3.71.34,11.12,0,20.17-9.05,20.17-20.17s-9.05-20.17-20.17-20.17h0Z"/><path class="cls-12" d="M69.14,286.19c-4.59,0-8.9-1.79-12.14-5.03-1.12-1.12-2.07-2.38-2.84-3.75h-10.12c-.77,1.37-1.72,2.62-2.84,3.75-3.24,3.24-7.56,5.03-12.14,5.03s-8.9-1.79-12.14-5.03c-6.7-6.7-6.7-17.59,0-24.29,3.24-3.24,7.56-5.03,12.14-5.03s8.9,1.79,12.14,5.03c1.12,1.12,2.07,2.38,2.84,3.75h10.12c.77-1.37,1.72-2.62,2.84-3.75,3.24-3.24,7.56-5.03,12.14-5.03s8.9,1.79,12.14,5.03c6.7,6.7,6.7,17.59,0,24.29-3.24,3.24-7.56,5.03-12.14,5.03Z"/><path class="cls-11" d="M29.05,254.84c3.63,0,7.25,1.38,10.02,4.15,1.37,1.37,2.39,2.94,3.08,4.62h13.88c.69-1.68,1.72-3.26,3.08-4.62,2.77-2.77,6.39-4.15,10.02-4.15s7.25,1.38,10.02,4.15c5.53,5.53,5.53,14.51,0,20.04-2.77,2.77-6.39,4.15-10.02,4.15s-7.25-1.38-10.02-4.15c-1.37-1.37-2.39-2.94-3.08-4.62h-13.88c-.69,1.68-1.72,3.26-3.08,4.62-2.77,2.77-6.39,4.15-10.02,4.15s-7.25-1.38-10.02-4.15c-5.54-5.54-5.54-14.51,0-20.04,2.77-2.77,6.39-4.15,10.02-4.15M29.05,248.84c-5.39,0-10.45,2.1-14.26,5.91-7.87,7.87-7.87,20.66,0,28.53,3.81,3.81,8.88,5.91,14.26,5.91s10.45-2.1,14.26-5.91c.89-.89,1.68-1.85,2.38-2.87h6.79c.7,1.02,1.5,1.98,2.38,2.87,3.81,3.81,8.88,5.91,14.26,5.91s10.45-2.1,14.26-5.91c7.87-7.87,7.87-20.66,0-28.53-3.81-3.81-8.88-5.91-14.26-5.91s-10.45,2.1-14.26,5.91c-.89.89-1.68,1.85-2.38,2.87h-6.79c-.7-1.02-1.5-1.98-2.38-2.87-3.81-3.81-8.88-5.91-14.26-5.91h0Z"/><path class="cls-12" d="M70.87,173.08c-9.47,0-17.17-7.7-17.17-17.17s7.7-17.17,17.17-17.17,17.17,7.7,17.17,17.17-7.7,17.17-17.17,17.17Z"/><path class="cls-11" d="M70.87,141.73c7.83,0,14.17,6.35,14.17,14.17s-6.35,14.17-14.17,14.17-14.17-6.35-14.17-14.17,6.35-14.17,14.17-14.17M70.87,135.73c-11.12,0-20.17,9.05-20.17,20.17s9.05,20.17,20.17,20.17,20.17-9.05,20.17-20.17-9.05-20.17-20.17-20.17h0Z"/></g></svg>